PathFileType	4	(X/Y/Z)	C:\Users\willi\Desktop\Data_PaperCallum_v2\17_Akif\Gait01\marker_experimental_temp.trc
DataRate	CameraRate	NumFrames	NumMarkers	Units	OrigDataRate	OrigDataStartFrame	OrigNumFrames
100.000000	100.000000	7	27	mm	100.000000	22	180
Frame#	Time	C7			T10			Clav			Sternum			Right_Back			PCL_CRAN			PCL_RECHTS			PCL_LINKS			RCL_UL_CRAN			RCL_UL_POST			RCL_UL_ANT			RCL_LL_CRAN			RCL_LL_POST			RCL_LL_ANT			Right_Heel			Right_Toe			Right_M5			LCL_UL_CRAN			LCL_UL_POST			LCL_UL_ANT			LCL_LL_CRAN			LCL_LL_POST			LCL_LL_ANT			Left_Heel			Left_Toe			Left_M5			*26			
		X1	Y1	Z1	X2	Y2	Z2	X3	Y3	Z3	X4	Y4	Z4	X5	Y5	Z5	X6	Y6	Z6	X7	Y7	Z7	X8	Y8	Z8	X9	Y9	Z9	X10	Y10	Z10	X11	Y11	Z11	X12	Y12	Z12	X13	Y13	Z13	X14	Y14	Z14	X15	Y15	Z15	X16	Y16	Z16	X17	Y17	Z17	X18	Y18	Z18	X19	Y19	Z19	X20	Y20	Z20	X21	Y21	Z21	X22	Y22	Z22	X23	Y23	Z23	X24	Y24	Z24	X25	Y25	Z25	X26	Y26	Z26	X27	Y27	Z27	

23	0.22	1282.483154296875	1386.533325195313	211.1678924560546	1324.580810546875	1170.027465820313	219.8173065185546	1141.67431640625	1309.339233398438	217.8965301513671	1083.6181640625	1147.659912109375	241.9829864501953	1319.356689453125	1318.762817382813	103.2692947387694	1310.282104492188	998.0300292968751	211.344512939453	1317.736328125	940.1351928710939	184.0935058593749	1322.1455078125	937.0658569335939	234.5516204833984	1127.480590820313	715.4559326171876	51.21122360229485	1125.61669921875	650.6974487304689	57.96443176269524	1080.176391601563	671.5132446289064	57.8880653381347	1054.489990234375	371.1770629882813	94.26988220214837	1066.83447265625	308.7620239257813	86.51692962646477	1020.241271972656	316.0843505859376	102.5427246093749	1085.11474609375	30.66020965576179	184.5960083007812	885.2208862304688	34.86711502075201	182.0149383544921	930.8167724609375	13.71263885498053	125.3688888549804	1256.22021484375	732.4901123046876	401.0027770996093	1279.125366210938	671.8813476562501	393.9972229003906	1230.789306640625	672.4962158203126	406.0172119140624	1402.603271484375	394.8726501464845	390.0930786132811	1460.774169921875	364.8863525390626	384.0574645996093	1422.60986328125	333.2800903320314	386.8766784667968	1663.322265625	180.0180664062501	291.5927124023436	1543.353759765625	36.36996459960947	291.5302124023436	1591.115600585938	33.87502288818369	343.5839233398436	nan	nan	nan	
24	0.23	1268.190795898438	1388.554321289063	209.5629577636718	1309.98291015625	1171.996704101563	218.6016082763671	1127.3623046875	1311.60791015625	216.8325653076171	1069.037963867188	1150.133544921875	241.2393341064453	1304.571533203125	1320.535888671875	101.5050430297851	1295.617553710938	1000.107177734375	210.4768066406249	1303.047607421875	942.3256225585939	183.0279235839843	1307.365112304688	939.0330810546876	233.4774169921874	1114.925537109375	717.1215209960939	49.43937301635735	1113.824951171875	652.3627929687501	56.41321563720696	1068.193115234375	672.6782836914064	55.58564758300775	1046.532348632813	371.8631896972657	92.93113708496087	1060.436401367188	309.6544189453126	84.55674743652337	1013.708435058594	315.7785644531251	101.5779724121093	1084.888549804688	30.85877609252936	184.1644592285156	884.4337768554688	34.30870437622076	181.6803741455078	930.6258544921875	13.06485939025885	124.7293014526367	1237.657592773438	732.9888916015626	400.6361694335937	1259.274658203125	671.8180541992189	394.3077087402343	1211	673.4873046875001	406.2866821289062	1378.122680664063	395.9387817382813	393.0900878906249	1436.773193359375	367.1443481445314	386.5063476562499	1399.09033203125	334.6158142089845	390.4852905273436	1644.385375976563	193.3042602539064	293.113555908203	1536.119873046875	40.08280181884775	291.7904357910155	1581.9306640625	41.60269927978526	343.9895935058593	nan	nan	nan	
25	0.24	1253.994262695313	1390.71826171875	208.0213012695312	1295.537109375	1174.12646484375	217.3613891601562	1113.167602539063	1313.988891601563	215.8354797363281	1054.663208007813	1152.677734375	240.5474853515624	1289.86474609375	1322.509033203125	99.75968170166007	1281.1611328125	1002.302307128906	209.5592651367187	1288.568725585938	944.6176147460939	181.9627990722655	1292.807983398438	941.1404418945314	232.3996276855468	1102.9189453125	718.6835327148439	47.78365707397454	1102.768432617188	653.9340820312501	54.98891067504876	1056.8681640625	673.6016845703126	53.3426666259765	1039.846801757813	372.3241882324219	91.7688369750976	1055.41748046875	310.1914062500001	83.5361251831054	1008.355773925781	315.3362426757813	100.6081237792968	1084.796508789063	30.88020896911628	183.8849487304687	883.9871826171875	34.21075057983404	181.4960174560546	930.5345458984375	12.86717700958258	124.2553253173828	1219.004760742188	733.6538696289064	400.3435058593749	1239.164672851563	671.8455810546876	394.5989379882812	1190.999755859375	674.7033691406251	406.6376647949218	1352.306762695313	396.7082214355469	395.9282836914062	1411.312377929688	368.8843383789064	389.1501159667968	1373.923706054688	335.4274597167969	393.5137939453124	1624.021850585938	205.6705474853516	294.5355224609374	1525.183837890625	44.82579040527353	292.560821533203	1569.51171875	50.18520736694346	344.8577270507811	nan	nan	nan	
26	0.25	1239.900512695313	1392.990112304688	206.5472564697265	1281.245239257813	1176.376220703125	216.0997619628905	1099.0947265625	1316.44580078125	214.9062499999999	1040.494384765625	1155.253173828125	239.9000091552734	1275.245971679688	1324.645751953125	98.03919219970696	1266.910034179688	1004.580017089844	208.6039886474609	1274.300537109375	946.9754028320314	180.9102172851562	1278.4716796875	943.3530883789064	231.3315887451171	1091.40771484375	720.1416625976564	46.31168365478509	1092.403686523438	655.4229125976564	53.73902511596673	1046.147705078125	674.2868652343751	51.3107948303222	1034.373779296875	372.5801086425782	90.80651092529291	1051.635986328125	310.4496154785157	83.42008209228509	1004.075561523438	314.8241271972657	99.63066864013666	1084.81494140625	30.79788208007819	183.7362670898437	883.7996826171875	34.34597015380865	181.4620361328124	930.5018310546875	12.93092346191412	123.9521484374999	1200.342041015625	734.5241088867189	400.1094055175781	1218.928833007813	672.0511474609376	394.8277282714843	1170.919555664063	676.1921386718751	407.0307312011718	1325.452392578125	397.2966308593751	398.5428771972656	1384.757934570313	370.3082275390626	391.9075012207031	1347.584594726563	335.9618835449219	395.7222595214843	1602.388793945313	216.764129638672	295.5951843261718	1510.286254882813	50.32157516479501	293.9703063964843	1553.837280273438	59.14303588867197	346.1258239746093	nan	nan	nan	
27	0.26	1225.913940429688	1395.332885742188	205.1440277099609	1267.105712890625	1178.704833984375	214.8224639892577	1085.145629882813	1318.942504882813	214.044204711914	1026.52490234375	1157.82373046875	239.2865753173828	1260.72265625	1326.9072265625	96.3494796752929	1252.856567382813	1006.906372070313	207.6265869140624	1260.239624023438	949.3642578125001	179.8851623535155	1264.348022460938	945.6371459960939	230.2897949218749	1080.3310546875	721.5016479492189	45.07339477539056	1082.6474609375	656.8446655273439	52.68677902221673	1035.951782226563	674.7611083984376	49.61442184448236	1029.982666015625	372.6715393066407	90.04204559326166	1048.887451171875	310.5272521972657	84.0362472534179	1000.721435546875	314.2975158691407	98.6681289672851	1084.91259765625	30.67423248291022	183.6870422363281	883.7887573242188	34.55039215087896	181.5446472167968	930.498046875	13.10589408874517	123.7946395874023	1181.733276367188	735.6367187500001	399.9122009277343	1198.691650390625	672.5242309570314	394.9673156738281	1150.874267578125	677.9967651367189	407.4171752929687	1297.885498046875	397.8634033203126	400.8851013183593	1357.493408203125	371.6642150878907	394.6407165527343	1320.571899414063	336.5404968261719	397.0076293945312	1579.593994140625	226.2900695800782	296.0626831054686	1491.487426757813	56.18438339233408	296.0479125976561	1535.031982421875	67.9552001953126	347.7049255371093	nan	nan	nan	
28	0.27	1212.036987304688	1397.709106445313	203.8138122558593	1253.114013671875	1181.070556640625	213.5374755859374	1071.319702148438	1321.443481445313	213.2472686767578	1012.742370605469	1160.356811523438	238.6949005126953	1246.300903320313	1329.2529296875	94.69645690917962	1238.989868164063	1009.248718261719	206.6448516845702	1246.378540039063	951.7508544921876	178.9045410156249	1250.4248046875	947.9600219726564	229.2928314208984	1069.628295898438	722.7717285156251	44.09730911254876	1073.384765625	658.2120361328126	51.83503341674798	1026.185791015625	675.0690307617189	48.33149337768548	1026.48974609375	372.6516723632813	89.45374298095697	1046.916870117188	310.5277099609376	85.11371612548821	998.1173706054688	313.7969360351563	97.76173400878901	1085.057739257813	30.55549049377448	183.7017669677734	883.8800048828125	34.72381210327154	181.6945190429687	930.5034790039063	13.28758144378668	123.7420425415038	1163.220458984375	737.0177612304689	399.7268981933593	1178.554931640625	673.3369140625001	395.0135803222656	1130.949340820313	680.1434936523439	407.7461853027343	1269.929321289063	398.5775756835938	402.9136962890624	1329.87060546875	373.1703491210938	397.1642150878906	1293.310180664063	337.4533691406251	397.4221191406249	1555.71484375	234.0168914794923	295.8126220703124	1469.087768554688	61.98963165283212	298.7108154296874	1513.295166015625	76.12973022460947	349.4995727539061	nan	nan	nan	
29	0.28	1198.269165039063	1400.081420898438	202.5579071044921	1239.263061523438	1183.4326171875	212.2545013427734	1057.613891601563	1323.9140625	212.5122375488281	999.1302490234374	1162.823120117188	238.1117248535156	1231.984252929688	1331.641479492188	93.08602142333977	1225.296264648438	1011.576049804688	205.6775512695312	1232.706909179688	954.1033325195314	177.9860687255859	1236.686401367188	950.2902221679689	228.3601074218749	1059.245727539063	723.9588012695314	43.38917160034173	1064.485107421875	659.5288085937501	51.1727218627929	1016.756652832031	675.2623291015626	47.48106384277337	1023.684143066406	372.5786437988282	89.01038360595697	1045.441650390625	310.5444030761719	86.33410644531243	996.0690307617188	313.3524475097657	96.95362091064447	1085.222534179688	30.47122192382819	183.7464294433593	884.0142822265625	34.81992340087896	181.8620910644531	930.5067749023438	13.41491985321051	123.7504196166992	1144.823974609375	738.6755981445314	399.5290222167968	1158.584838867188	674.5289306640626	394.9843444824218	1111.193603515625	682.6340942382814	407.9745178222656	1241.876220703125	399.5842285156251	404.5887451171874	1302.173706054688	374.9536132812501	399.2704772949218	1266.077880859375	338.8726806640626	397.1637878417968	1530.8173828125	239.7796630859376	294.8568420410155	1443.511474609375	67.3403854370118	301.7868347167968	1488.848022460938	83.25564575195321	351.4197387695311	nan	nan	nan	
